<svg width="56" height="56" viewBox="0 0 56 56" fill="none" xmlns="http://www.w3.org/2000/svg">
<rect width="56" height="56" rx="28" fill="#D6DBF5"/>
<path d="M28.0036 33.6C26.4768 33.6 25.0124 33.01 23.9327 31.9598C22.8531 30.9096 22.2465 29.4852 22.2465 28C22.2465 26.5148 22.8531 25.0904 23.9327 24.0402C25.0124 22.99 26.4768 22.4 28.0036 22.4C29.5305 22.4 30.9948 22.99 32.0745 24.0402C33.1542 25.0904 33.7607 26.5148 33.7607 28C33.7607 29.4852 33.1542 30.9096 32.0745 31.9598C30.9948 33.01 29.5305 33.6 28.0036 33.6ZM40.2251 29.552C40.2909 29.04 40.3403 28.528 40.3403 28C40.3403 27.472 40.2909 26.944 40.2251 26.4L43.6958 23.792C44.0084 23.552 44.0906 23.12 43.8932 22.768L40.6035 17.232C40.4061 16.88 39.9619 16.736 39.6001 16.88L35.5043 18.48C34.649 17.856 33.7607 17.312 32.7245 16.912L32.1158 12.672C32.0824 12.4836 31.9815 12.3127 31.831 12.1897C31.6804 12.0667 31.49 11.9995 31.2934 12H24.7139C24.3026 12 23.9572 12.288 23.8914 12.672L23.2828 16.912C22.2465 17.312 21.3583 17.856 20.503 18.48L16.4072 16.88C16.0453 16.736 15.6012 16.88 15.4038 17.232L12.114 22.768C11.9002 23.12 11.9989 23.552 12.3114 23.792L15.7821 26.4C15.7163 26.944 15.667 27.472 15.667 28C15.667 28.528 15.7163 29.04 15.7821 29.552L12.3114 32.208C11.9989 32.448 11.9002 32.88 12.114 33.232L15.4038 38.768C15.6012 39.12 16.0453 39.248 16.4072 39.12L20.503 37.504C21.3583 38.144 22.2465 38.688 23.2828 39.088L23.8914 43.328C23.9572 43.712 24.3026 44 24.7139 44H31.2934C31.7046 44 32.05 43.712 32.1158 43.328L32.7245 39.088C33.7607 38.672 34.649 38.144 35.5043 37.504L39.6001 39.12C39.9619 39.248 40.4061 39.12 40.6035 38.768L43.8932 33.232C44.0906 32.88 44.0084 32.448 43.6958 32.208L40.2251 29.552Z" fill="#555555"/>
</svg>
